<svg width="49" height="21" viewBox="0 0 49 21" fill="none" xmlns="http://www.w3.org/2000/svg">
<path d="M21.2164 0.769531L12.8307 20.1425H8.40261L0.0445557 0.769531H4.8878L10.7827 14.6074L16.7607 0.769531H21.2164Z" fill="white"/>
<path d="M22.834 0.769531H27.3174V20.1425H22.834V0.769531Z" fill="white"/>
<path d="M40.3008 0.769531C42.0167 0.769531 43.5019 1.05551 44.7566 1.62748C46.0296 2.19944 47.0075 3.01126 47.6902 4.06294C48.3728 5.11461 48.7142 6.36002 48.7142 7.79915C48.7142 9.21984 48.3728 10.4652 47.6902 11.5354C47.0075 12.587 46.0296 13.3989 44.7566 13.9708C43.5019 14.5243 42.0167 14.8011 40.3008 14.8011H36.3985V20.1425H31.915V0.769531H40.3008ZM40.0517 11.1479C41.3986 11.1479 42.4226 10.8619 43.1237 10.29C43.8248 9.69955 44.1754 8.86928 44.1754 7.79915C44.1754 6.71058 43.8248 5.88031 43.1237 5.30834C42.4226 4.71793 41.3986 4.42272 40.0517 4.42272H36.3985V11.1479H40.0517Z" fill="white"/>
</svg>
