<svg width="51" height="20" viewBox="0 0 51 20" fill="none" xmlns="http://www.w3.org/2000/svg">
<path d="M21.552 0.399999L13.012 20H9.428L0.86 0.399999H4.808L11.332 15.52L17.912 0.399999H21.552ZM24.6203 0.399999H28.2603V20H24.6203V0.399999ZM42.6257 0.399999C44.3244 0.399999 45.799 0.679999 47.0497 1.24C48.319 1.8 49.2897 2.60267 49.9617 3.648C50.6337 4.69333 50.9697 5.93467 50.9697 7.372C50.9697 8.79067 50.6337 10.032 49.9617 11.096C49.2897 12.1413 48.319 12.944 47.0497 13.504C45.799 14.064 44.3244 14.344 42.6257 14.344H38.2017V20H34.5617V0.399999H42.6257ZM42.4577 11.264C44.0444 11.264 45.2484 10.928 46.0697 10.256C46.891 9.584 47.3017 8.62267 47.3017 7.372C47.3017 6.12133 46.891 5.16 46.0697 4.488C45.2484 3.816 44.0444 3.48 42.4577 3.48H38.2017V11.264H42.4577Z" fill="white"/>
</svg>
