<svg xmlns="http://www.w3.org/2000/svg" xmlns:xlink="http://www.w3.org/1999/xlink">

    <!-- пример записи -->
    <symbol id="" viewBox=""></symbol>


    <!-- youtube -->
    <symbol id="youtube" viewBox="0 0 16 16">
        <path d="M10.6389 7.68724L7.31655 5.27215C7.19462 5.18377 7.03277 5.17045 6.89913 5.23914C6.76442 5.30729 6.6803 5.44572 6.6803 5.59533V10.4239C6.6803 10.5751 6.76442 10.713 6.89913 10.7812C6.9561 10.8099 7.01839 10.8243 7.08122 10.8243C7.16321 10.8243 7.24627 10.7982 7.31655 10.7466L10.6389 8.33361C10.7438 8.25641 10.805 8.13714 10.805 8.01043C10.8056 7.88158 10.7427 7.76285 10.6389 7.68724Z" fill="black"/>
        <path d="M8.00027 0.00201416C3.58111 0.00201416 0 3.58313 0 8.00228C0 12.4198 3.58111 15.9999 8.00027 15.9999C12.4184 15.9999 16 12.4193 16 8.00228C16.0005 3.58313 12.4184 0.00201416 8.00027 0.00201416ZM8.00027 14.6651C4.32012 14.6651 1.33639 11.683 1.33639 8.00228C1.33639 4.3232 4.32012 1.33734 8.00027 1.33734C11.6799 1.33734 14.6631 4.32267 14.6631 8.00228C14.6636 11.683 11.6799 14.6651 8.00027 14.6651Z" fill="black"/>
    </symbol>

    <!-- geolocation -->
    <symbol id="geo" viewBox="0 0 510.222 510.222">
        <path xmlns="http://www.w3.org/2000/svg" d="m406.478 62.747c-83.658-83.658-219.067-83.667-302.734 0-83.656 83.655-83.669 219.067 0 302.734l140.054 140.054c6.249 6.249 16.379 6.248 22.627 0l140.054-140.054c83.655-83.655 83.668-219.066-.001-302.734zm-22.627 280.108-128.74 128.74-128.74-128.74c-70.987-70.987-70.987-186.493 0-257.48 70.988-70.986 186.49-70.988 257.48 0 70.987 70.986 70.987 186.492 0 257.48z" fill="#ffffff" data-original="#000000" style="" class=""/><path xmlns="http://www.w3.org/2000/svg" d="m255.111 118.42c-52.888 0-95.695 42.798-95.695 95.694 0 52.887 42.8 95.694 95.695 95.694 52.889 0 95.695-42.8 95.695-95.694 0-52.887-42.799-95.694-95.695-95.694zm45.039 140.733c-.613 0-15.694 18.655-45.039 18.655-35.203 0-63.695-28.487-63.695-63.694 0-35.202 28.488-63.694 63.695-63.694 57.185 0 84.671 69.102 45.039 108.733z" fill="#ffffff" data-original="#000000" style="" class=""/>
    </symbol>
    <!-- arrow-bot -->
    <symbol id="arrow-bot" viewBox="0 0 490.688 490.688">
        <path style="fill:#FFC107;" d="M472.328,120.529L245.213,347.665L18.098,120.529c-4.237-4.093-10.99-3.975-15.083,0.262
	c-3.992,4.134-3.992,10.687,0,14.82l234.667,234.667c4.165,4.164,10.917,4.164,15.083,0l234.667-234.667
	c4.237-4.093,4.354-10.845,0.262-15.083c-4.093-4.237-10.845-4.354-15.083-0.262c-0.089,0.086-0.176,0.173-0.262,0.262
	L472.328,120.529z" />
        <path d="M245.213,373.415c-2.831,0.005-5.548-1.115-7.552-3.115L2.994,135.633c-4.093-4.237-3.975-10.99,0.262-15.083
	c4.134-3.992,10.687-3.992,14.82,0l227.136,227.115l227.115-227.136c4.093-4.237,10.845-4.354,15.083-0.262
	c4.237,4.093,4.354,10.845,0.262,15.083c-0.086,0.089-0.173,0.176-0.262,0.262L252.744,370.279
	C250.748,372.281,248.039,373.408,245.213,373.415z" />
    </symbol>

    <!-- heart -->
    <symbol id="heart" viewBox="0 0 26 23">
        <path d="M23.9383 2.25203C22.5926 0.797805 20.7441 0 18.7383 0C17.2352 0 15.8641 0.469594 14.6555 1.40373C14.0461 1.87333 13.4926 2.44896 13.0051 3.12053C12.5176 2.44896 11.9641 1.87333 11.3547 1.40373C10.1359 0.469594 8.76484 0 7.26172 0C5.25586 0 3.40742 0.797805 2.06172 2.25203C0.73125 3.68606 0 5.64523 0 7.77102C0 9.95741 0.817578 11.957 2.57969 14.0676C4.15391 15.9561 6.41367 17.8749 9.03398 20.0915C9.92773 20.849 10.9434 21.7074 11.9945 22.6263C12.2738 22.8687 12.6293 23 13 23C13.3707 23 13.7262 22.8687 14.0055 22.6263C15.0566 21.7124 16.0723 20.849 16.966 20.0915C19.5863 17.8749 21.8461 15.9561 23.4203 14.0676C25.1773 11.957 26 9.95741 26 7.77102C26 5.64523 25.2687 3.68606 23.9383 2.25203Z" />
    </symbol>

    <!-- arrow-left -->
    <symbol id="arrow-left" viewBox="0 0 18 32">
        <rect x="16.2225" y="0.871094" width="1.67292" height="21.7479" transform="rotate(45 16.2225 0.871094)" />
        <rect x="0.843666" y="16.249" width="1.67292" height="21.7479" transform="rotate(-45 0.843666 16.249)" />
    </symbol>

    <!-- arrow-right -->
    <symbol id="arrow-right" viewBox="0 0 18 32">
        <rect x="1.77759" y="31.1289" width="1.67292" height="21.7479" transform="rotate(-135 1.77759 31.1289)" />
        <rect x="17.1564" y="15.751" width="1.67292" height="21.7479" transform="rotate(135 17.1564 15.751)" />
    </symbol>

    <!-- link-arrow-left -->
    <symbol id="link-arrow-left" viewBox="0 0 8 15">
        <line x1="7.4246" y1="0.353553" x2="0.35353" y2="7.42462" />
        <line x1="0.35353" y1="6.71774" x2="7.4246" y2="13.7888" />
    </symbol>

    <!-- link-arrow-right -->
    <symbol id="link-arrow-right" viewBox="0 0 9 15">
        <line x1="0.717492" y1="13.7885" x2="7.78856" y2="6.71747" />
        <line x1="7.78854" y1="7.42484" x2="0.717469" y2="0.353775" />
    </symbol>

    <!-- telegram -->
    <symbol id="telegram" viewBox="0 0 26 26">
        <path d="M12.7084 25.4167C19.727 25.4167 25.4167 19.727 25.4167 12.7084C25.4167 5.68972 19.727 0 12.7084 0C5.68972 0 0 5.68972 0 12.7084C0 19.727 5.68972 25.4167 12.7084 25.4167Z" fill="#039BE5" />
        <path d="M5.81502 12.4333L18.068 7.70894C18.6367 7.50349 19.1334 7.84768 18.9491 8.70761L18.9502 8.70655L16.8639 18.5354C16.7093 19.2322 16.2952 19.4017 15.7159 19.0734L12.5388 16.7319L11.0064 18.2082C10.8369 18.3776 10.694 18.5206 10.3657 18.5206L10.5912 15.2874L16.4794 9.96785C16.7357 9.74228 16.4223 9.6152 16.0844 9.83971L8.80783 14.4211L5.67099 13.4425C4.99003 13.2265 4.97521 12.7616 5.81502 12.4333Z" fill="white" />
    </symbol>

    <!-- whatsapp -->
    <symbol id="whatsapp" viewBox="0 0 26 26">
        <path d="M12.7115 0H12.7052C5.69811 0 0 5.6997 0 12.7084C0 15.4883 0.895939 18.0649 2.41935 20.157L0.835574 24.8782L5.72035 23.3167C7.72986 24.6479 10.127 25.4167 12.7115 25.4167C19.7186 25.4167 25.4167 19.7154 25.4167 12.7084C25.4167 5.70129 19.7186 0 12.7115 0Z" fill="#4CAF50" />
        <path d="M20.1063 17.9457C19.7997 18.8114 18.5829 19.5295 17.6122 19.7391C16.9482 19.8805 16.0809 19.9933 13.1611 18.7828C9.42648 17.2356 7.02143 13.4406 6.83398 13.1943C6.65447 12.9481 5.32486 11.1848 5.32486 9.36119C5.32486 7.53754 6.25098 6.64954 6.62429 6.26829C6.93088 5.95535 7.43762 5.81238 7.92372 5.81238C8.08098 5.81238 8.22236 5.82032 8.34945 5.82667C8.72276 5.84256 8.9102 5.8648 9.15643 6.45415C9.46302 7.19282 10.2096 9.01647 10.2986 9.20392C10.3891 9.39137 10.4797 9.64554 10.3526 9.89176C10.2335 10.1459 10.1286 10.2587 9.94117 10.4748C9.75372 10.6908 9.5758 10.856 9.38836 11.0879C9.21679 11.2897 9.02299 11.5057 9.23903 11.879C9.45507 12.2444 10.2017 13.4628 11.301 14.4413C12.7195 15.7042 13.8696 16.1077 14.2811 16.2793C14.5877 16.4064 14.953 16.3762 15.177 16.1379C15.4614 15.8313 15.8124 15.323 16.1699 14.8226C16.424 14.4636 16.7449 14.4191 17.0817 14.5462C17.4248 14.6653 19.2405 15.5629 19.6138 15.7487C19.9871 15.9362 20.2333 16.0251 20.3239 16.1824C20.4129 16.3397 20.4129 17.0783 20.1063 17.9457Z" fill="#FAFAFA" />
    </symbol>

    <!-- out -->
    <symbol id="out" viewBox="0 0 21 20">
        <path d="M10.9331 18.3334H3.43309C2.97309 18.3334 2.59978 17.96 2.59978 17.5001V2.50002C2.59978 2.04002 2.97313 1.66671 3.43309 1.66671H10.9331C11.394 1.66671 11.7664 1.29422 11.7664 0.833394C11.7664 0.372566 11.394 0 10.9331 0H3.43309C2.05476 0 0.933105 1.1217 0.933105 2.50002V17.5C0.933105 18.8783 2.05476 20 3.43309 20H10.9331C11.394 20 11.7664 19.6275 11.7664 19.1667C11.7664 18.7059 11.394 18.3334 10.9331 18.3334Z" fill="#9C9057" />
        <path d="M20.7513 9.40691L15.6846 4.4069C15.3579 4.08356 14.8296 4.08776 14.5063 4.41525C14.1829 4.74275 14.1863 5.27024 14.5146 5.59358L18.1354 9.1669H8.43292C7.9721 9.1669 7.59961 9.53938 7.59961 10.0002C7.59961 10.461 7.9721 10.8336 8.43292 10.8336H18.1354L14.5146 14.4069C14.1863 14.7302 14.1838 15.2577 14.5063 15.5852C14.6696 15.7502 14.8846 15.8335 15.0996 15.8335C15.3113 15.8335 15.5229 15.7535 15.6846 15.5935L20.7513 10.5935C20.9096 10.4369 20.9996 10.2235 20.9996 10.0002C20.9996 9.77693 20.9104 9.56443 20.7513 9.40691Z" fill="#9C9057" />
    </symbol>

    <!-- close1 -->
    <symbol id="close1" viewBox="0 0 30 30">
        <path fill-rule="evenodd" clip-rule="evenodd" d="M22 9.41L20.59 8L15 13.59L9.41 8L8 9.41L13.59 15L8 20.59L9.41 22L15 16.41L20.59 22L22 20.59L16.41 15L22 9.41Z" />
    </symbol>

</svg>
