<svg width="18" height="16" viewBox="0 0 18 16" fill="none" xmlns="http://www.w3.org/2000/svg">
<path d="M4.02878 16C3.83157 16 3.63573 15.9429 3.4686 15.8308C3.15727 15.6215 3.01183 15.2618 3.09657 14.9147L4.25455 10.1833L0.327393 6.98884C0.0387204 6.75509 -0.0715576 6.38492 0.0469603 6.04621C0.165478 5.70813 0.487935 5.46878 0.869719 5.43605L6.06583 4.99849L8.12019 0.53921C8.27166 0.211582 8.61664 0 8.99994 0C9.38323 0 9.72821 0.211582 9.87969 0.538446L11.934 4.99849L17.1293 5.43605C17.5119 5.46802 17.8344 5.70813 17.9529 6.04621C18.0714 6.38428 17.9618 6.75509 17.6732 6.98884L13.746 10.1827L14.904 14.9139C14.9889 15.2618 14.8433 15.6215 14.5321 15.8302C14.2216 16.0389 13.8075 16.0549 13.4805 15.8726L8.99994 13.389L4.51933 15.874C4.36785 15.9575 4.19907 16 4.02878 16ZM8.99994 12.3192C9.17023 12.3192 9.33888 12.3616 9.49049 12.445L13.7191 14.7909L12.6262 10.3252C12.5482 10.0074 12.6645 9.67559 12.9293 9.46057L16.6374 6.44415L11.7315 6.03092C11.3783 6.00099 11.0745 5.79501 10.9365 5.49311L8.99994 1.28491L7.06108 5.49375C6.92457 5.79361 6.62079 5.99959 6.2684 6.02952L1.36178 6.44275L5.06976 9.45917C5.33536 9.67482 5.45154 10.006 5.37285 10.3246L4.28078 14.7901L8.50939 12.445C8.66086 12.3616 8.82965 12.3192 8.99994 12.3192ZM6.02614 5.08472C6.02614 5.08472 6.02614 5.08549 6.02532 5.08613L6.02614 5.08472ZM11.9722 5.08269L11.9731 5.08409C11.9731 5.08332 11.9731 5.08332 11.9722 5.08269Z" fill="#9C9057"/>
</svg>
